<?xml version="1.0" standalone="no"?>
<!DOCTYPE svg PUBLIC "-//W3C//DTD SVG 20010904//EN"
 "http://www.w3.org/TR/2001/REC-SVG-20010904/DTD/svg10.dtd">
<svg version="1.0" xmlns="http://www.w3.org/2000/svg"
 width="16.000000pt" height="16.000000pt" viewBox="0 0 16.000000 16.000000"
 preserveAspectRatio="xMidYMid meet">
<metadata>
Created by potrace 1.11, written by Peter Selinger 2001-2013
</metadata>
<g transform="translate(0.000000,16.000000) scale(0.002286,-0.002286)"
fill="#000000" stroke="none">
<path d="M3089 6993 c-1 -4 -2 -244 -3 -532 -1 -458 -3 -524 -16 -526 -8 -1
-51 -5 -94 -9 -90 -8 -128 -13 -201 -26 -27 -5 -66 -12 -85 -15 -19 -3 -80
-17 -135 -31 -55 -14 -107 -27 -115 -29 -59 -14 -252 -84 -356 -130 -187 -80
-460 -237 -579 -331 -16 -14 -35 -28 -40 -32 -137 -98 -390 -344 -511 -497
-94 -119 -214 -289 -214 -304 0 -6 -4 -11 -8 -11 -4 0 -13 -12 -20 -27 -6 -16
-21 -44 -33 -63 -71 -116 -172 -340 -229 -509 -34 -102 -95 -332 -104 -396 -4
-23 -8 -50 -10 -60 -24 -132 -39 -305 -40 -470 0 -128 10 -328 19 -374 2 -13
7 -49 11 -80 3 -31 8 -58 9 -61 2 -3 6 -26 10 -50 32 -225 167 -614 294 -847
76 -140 89 -160 153 -257 288 -433 701 -795 1163 -1021 212 -103 485 -200 655
-231 14 -3 32 -7 40 -9 46 -14 233 -41 375 -55 81 -8 489 -5 535 4 14 2 51 7
84 11 65 7 88 11 161 25 28 5 61 12 75 14 328 58 817 271 1100 478 193 142
355 288 520 468 88 96 260 334 333 462 146 252 261 540 324 803 11 49 52 275
58 325 4 30 9 69 12 85 10 80 9 469 -2 565 -29 237 -32 206 30 282 64 79 146
204 199 302 41 77 118 254 131 301 10 37 7 27 32 110 12 39 25 86 29 105 4 19
8 37 9 40 1 3 5 25 9 50 5 25 10 52 11 61 32 173 37 540 9 706 -70 419 -197
723 -423 1013 -173 222 -450 443 -701 558 -132 60 -158 71 -283 110 -135 44
-237 67 -382 87 -27 3 -61 9 -75 12 -39 10 -1730 15 -1731 6z m1651 -473 c25
-5 68 -11 97 -14 28 -3 73 -11 100 -17 26 -6 59 -13 73 -15 96 -19 360 -130
426 -181 17 -12 34 -23 39 -23 18 0 180 -137 253 -216 162 -172 280 -379 351
-614 13 -41 25 -84 27 -95 43 -217 48 -266 49 -460 0 -140 -7 -261 -19 -321
-30 -145 -42 -192 -66 -264 -16 -47 -37 -104 -47 -127 l-18 -43 -40 88 c-68
148 -213 397 -289 493 -12 15 -30 39 -41 55 -48 67 -177 215 -271 308 -345
347 -808 620 -1279 755 -88 25 -274 66 -340 75 -27 4 -63 10 -80 13 -16 3 -36
6 -42 6 -10 0 -13 70 -13 304 l0 304 543 -1 c298 -1 563 -5 587 -10z"/>
</g>
</svg>
