<svg id="c0f96a8c-3087-4fad-b7c4-e739a0cea8f2" data-name="Layer 1" xmlns="http://www.w3.org/2000/svg" viewBox="0 0 229.42 302.31"><defs><style>.\38 9a81b87-2da3-4c69-937c-0dcd5f88941d{fill:#faebcc;}.\36 9efe5ac-a3f3-4503-b30e-a36a9b8f26d4{fill:#d8464f;}.\33 0f48145-4e69-4b18-8474-c43b297d0db7{fill:#efaba4;}.a8fb59c9-6058-4b8a-be26-87cd55dcb430{fill:#3b5162;}.b923a21c-214d-4869-919c-401fb6cb5141{fill:#3a3c91;}.a7caf679-e69e-46e7-81ef-a3a6a4a7289f{fill:#aabdd1;}.\34 122e83b-879c-401a-97ff-6bb09f7f4b8d{fill:#c1dbd5;}.\39 2fe2320-8e09-4ca5-9fd0-4623ee87ebcc{fill:#feffbe;}.f0587e29-18e6-4831-8869-a5f6ae86e0d9{fill:#426874;}.d459a44e-92a9-4e78-a78f-5ba23afc3ec7{fill:#de93b2;}</style></defs><title>0</title><rect class="89a81b87-2da3-4c69-937c-0dcd5f88941d" x="81.84" y="2.99" width="17.01" height="51.51" transform="translate(6.13 72.3) rotate(-45)"/><rect class="69efe5ac-a3f3-4503-b30e-a36a9b8f26d4" x="94.84" y="123.99" width="17.01" height="51.51" transform="translate(124.08 -31.01) rotate(41.16)"/><polygon class="30f48145-4e69-4b18-8474-c43b297d0db7" points="53 61.31 0.71 43.5 42.28 7.12 53 61.31"/><path class="a8fb59c9-6058-4b8a-be26-87cd55dcb430" d="M160.5,4.69a20.59,20.59,0,1,1,24.75,32.92"/><polygon class="b923a21c-214d-4869-919c-401fb6cb5141" points="213.37 55.63 203.6 69.17 189.55 59.02 181.81 69.75 195.86 79.89 185.35 94.46 196.08 102.2 206.59 87.64 220.64 97.78 228.38 87.05 214.33 76.91 224.1 63.37 213.37 55.63"/><rect class="89a81b87-2da3-4c69-937c-0dcd5f88941d" x="195.25" y="177.46" width="17.01" height="51.51" transform="translate(-83.4 184.45) rotate(-41.19)"/><rect class="a7caf679-e69e-46e7-81ef-a3a6a4a7289f" x="110.89" y="186.24" width="38.96" height="38.97" transform="translate(363.95 274.7) rotate(138.81)"/><polygon class="4122e83b-879c-401a-97ff-6bb09f7f4b8d" points="186.46 120.83 227.77 134.91 194.93 163.65 186.46 120.83"/><path class="b923a21c-214d-4869-919c-401fb6cb5141" d="M63.59,202.27a20.59,20.59,0,1,1-24.75-32.92"/><path class="4122e83b-879c-401a-97ff-6bb09f7f4b8d" d="M54.13,118.5A20.59,20.59,0,1,1,79.91,86.38"/><path class="30f48145-4e69-4b18-8474-c43b297d0db7" d="M142.49,150.08a20.59,20.59,0,1,1,32.06,25.86"/><polygon class="a7caf679-e69e-46e7-81ef-a3a6a4a7289f" points="18.72 163.34 28.5 149.8 42.55 159.94 50.29 149.21 36.24 139.07 46.75 124.5 36.02 116.76 25.51 131.32 11.46 121.18 3.71 131.91 17.77 142.05 7.99 155.59 18.72 163.34"/><rect class="92fe2320-8e09-4ca5-9fd0-4623ee87ebcc" x="1.59" y="238.24" width="51.51" height="17.01" transform="translate(-176.43 104.95) rotate(-48.84)"/><polygon class="f0587e29-18e6-4831-8869-a5f6ae86e0d9" points="101 294.31 48.72 276.5 90.28 240.12 101 294.31"/><path class="69efe5ac-a3f3-4503-b30e-a36a9b8f26d4" d="M188.5,244.69a20.59,20.59,0,1,1,24.75,32.92"/><polygon class="d459a44e-92a9-4e78-a78f-5ba23afc3ec7" points="159.37 255.63 149.6 269.17 135.55 259.02 127.81 269.75 141.86 279.89 131.35 294.46 142.08 302.2 152.59 287.64 166.64 297.78 174.38 287.05 160.33 276.91 170.1 263.37 159.37 255.63"/></svg>