<svg id="e3203a6f-9262-43cf-b4d4-2364b1ac5ee8" data-name="Layer 1" xmlns="http://www.w3.org/2000/svg" viewBox="0 0 450 450"><defs><style>.\36 eda1d7f-8e0e-41c2-b27c-d695390b982e{fill:#3b5162;}.c1364504-1330-4cc6-9019-fe65e0ecef2d{fill:#c1dbd5;}.\39 5ff5fb5-5270-4cff-a49d-224a5de7e060{fill:#faebcc;}.cf67d434-d095-49c0-8b59-985c42a3a2ef{fill:#3a3c91;}.\33 c1e49fe-a0c5-4a61-bf02-d4a244f39724{fill:#d8464f;}.\30 6272c39-0d4c-4ee7-bafc-db7bee831f7b{fill:#feffbe;}.f5410b47-f695-4432-9b2d-b9ab604dd941{fill:#efaba4;}.\35 f7cc828-0be1-4e09-9863-e4edf2fa9cc5{fill:#aabdd1;}.\31 ec5b015-a4c9-4af1-88f9-779c2a10850e{fill:#d1d3d4;}.be8f0ee8-2189-4595-bf1b-b2f9c5e33a86{fill:#de93b2;}</style></defs><title>1</title><path class="6eda1d7f-8e0e-41c2-b27c-d695390b982e" d="M123.51,290.6c-2.33,18-8.51,31.21-16.52,41l101.53,87.78L268,350.55Z"/><path class="c1364504-1330-4cc6-9019-fe65e0ecef2d" d="M123.51,290.6l-17.3-7.18L.61,239.6l106.38,92C115,321.81,121.18,308.56,123.51,290.6Z"/><path class="95ff5fb5-5270-4cff-a49d-224a5de7e060" d="M107,331.57.61,239.6l58.56,98.06,10.43,17.46C82,351.61,96.17,344.77,107,331.57Z"/><polygon class="cf67d434-d095-49c0-8b59-985c42a3a2ef" points="146.74 243.11 290.52 269.37 297.03 233.74 252.83 169.79 146.74 243.11"/><polygon class="3c1e49fe-a0c5-4a61-bf02-d4a244f39724" points="284.1 148.18 311.73 153.23 297.03 233.74 320.95 268.35 383.54 225.09 315.42 126.53 284.1 148.18"/><polygon class="06272c39-0d4c-4ee7-bafc-db7bee831f7b" points="284.1 148.18 252.83 169.79 297.03 233.74 311.73 153.23 284.1 148.18"/><path class="f5410b47-f695-4432-9b2d-b9ab604dd941" d="M107,331.07c-10.82,13.2-25,20-37.39,23.55l57,95.38h55l26.93-31.15Z"/><polygon class="5f7cc828-0be1-4e09-9863-e4edf2fa9cc5" points="117.94 79.08 39.14 131.58 124 173.58 117.94 79.08"/><path class="1ec5b015-a4c9-4af1-88f9-779c2a10850e" d="M417,416.68A64.68,64.68,0,1,0,296.88,450H407.76A64.37,64.37,0,0,0,417,416.68Z"/><polygon class="be8f0ee8-2189-4595-bf1b-b2f9c5e33a86" points="374.52 405.62 338.61 297.59 450.13 320.5 374.52 405.62"/></svg>