<svg id="5a158776-f7ce-4c05-aad5-05c4ea107137" data-name="Layer 1" xmlns="http://www.w3.org/2000/svg" viewBox="0 0 450 300"><defs><style>.\39 583f021-9911-425d-890d-ac22d7cf99fd{fill:#3b5162;}.\36 8e80ae6-c17e-48ee-a431-4a652e621eb0{fill:#c1dbd5;}.\37 74b9089-d38c-494a-8d3f-6df8bf8bcdeb{fill:#faebcc;}.\35 f9df3b6-f16f-428a-b848-cc7db15196d6{fill:#3a3c91;}.\30 c63d405-203f-4fa7-95b7-35beaa25e22d{fill:#d8464f;}.\34 562d6bc-5438-429c-9dcd-626d62f88ddc{fill:#feffbe;}.\39 44ff87a-6f87-490c-8703-93919a07ee4d{fill:#efaba4;}.\33 6e991f1-8d03-4bd5-9a26-a8ce93abead1{fill:#426874;}.\32 8ec2e2f-36d7-48b3-b6ed-b8d014a5b916{fill:#aabdd1;}</style></defs><title>0</title><path class="9583f021-9911-425d-890d-ac22d7cf99fd" d="M123.51,140.45c-2.33,18-8.51,31.21-16.52,41L208.52,269.2,268,200.41Z"/><path class="68e80ae6-c17e-48ee-a431-4a652e621eb0" d="M123.51,140.45l-17.3-7.18L.61,89.46l106.38,92C115,171.66,121.18,158.41,123.51,140.45Z"/><path class="774b9089-d38c-494a-8d3f-6df8bf8bcdeb" d="M107,181.42.61,89.46l58.56,98.06L69.61,205C82,201.46,96.17,194.63,107,181.42Z"/><polygon class="5f9df3b6-f16f-428a-b848-cc7db15196d6" points="146.74 116.96 290.52 143.22 297.03 107.59 252.83 43.64 146.74 116.96"/><polygon class="0c63d405-203f-4fa7-95b7-35beaa25e22d" points="284.1 22.03 311.73 27.08 297.03 107.59 320.95 142.21 383.54 98.95 315.42 0.38 284.1 22.03"/><polygon class="4562d6bc-5438-429c-9dcd-626d62f88ddc" points="284.1 22.03 252.83 43.64 297.03 107.59 311.73 27.08 284.1 22.03"/><path class="944ff87a-6f87-490c-8703-93919a07ee4d" d="M107,180.92c-10.82,13.2-25,20-37.39,23.55l57,95.38h55l26.93-31.15Z"/><path class="36e991f1-8d03-4bd5-9a26-a8ce93abead1" d="M423.55,156a90,90,0,0,0-102,143.86H450V173.74A89.81,89.81,0,0,0,423.55,156Z"/><polygon class="28ec2e2f-36d7-48b3-b6ed-b8d014a5b916" points="140.2 8.57 72.15 53.91 145.44 90.18 140.2 8.57"/></svg>