<svg id="0912b908-d448-42cd-975b-de7f02dfed75" data-name="Layer 1" xmlns="http://www.w3.org/2000/svg" viewBox="0 0 795 795"><defs><style>.\34 8be29f3-f224-46cd-8cea-1cb14fcf6d6a{fill:none;}.\34 46bfc6f-8626-471c-8c7b-259eb4bf9979{fill:#d94650;}</style></defs><title>0</title><path class="48be29f3-f224-46cd-8cea-1cb14fcf6d6a" d="M480.2,733.73h.13q1.25-13.83,3.39-29.48c-6.27,23.27-27.53,48.4-63.38,54.17v5.51c0,12.05,1.89,22.76,6.34,30C448.31,793.88,466.27,771.13,480.2,733.73Z"/><path class="48be29f3-f224-46cd-8cea-1cb14fcf6d6a" d="M576.75,570.06A14.9,14.9,0,0,0,576,565c-.63,21-7.45,45.18-11,56a317.8,317.8,0,0,1-30.7,68.11c-1.25,6.88-2.41,13.73-3.46,20.48C549.22,676.18,576.39,614.86,576.75,570.06Z"/><path class="48be29f3-f224-46cd-8cea-1cb14fcf6d6a" d="M659.73,570.06a14.9,14.9,0,0,0-.79-5.08c-.63,21-7.45,45.18-11,56a317.8,317.8,0,0,1-30.7,68.11c-1.25,6.88-2.41,13.73-3.46,20.48C632.2,676.18,659.37,614.86,659.73,570.06Z"/><path class="48be29f3-f224-46cd-8cea-1cb14fcf6d6a" d="M561.7,765.31s0-.1,0-.14a268.62,268.62,0,0,1-14.22,29.52h7.39a114.93,114.93,0,0,0,7.54-12.1Q561.7,774.62,561.7,765.31Z"/><path class="48be29f3-f224-46cd-8cea-1cb14fcf6d6a" d="M427,741.42c-1.77.86-3.59,1.67-5.48,2.42,0,.21-.07.42-.1.64C423.38,743.52,425.23,742.49,427,741.42Z"/><path class="48be29f3-f224-46cd-8cea-1cb14fcf6d6a" d="M563.18,733.73h.13c1.9-21,5.4-45.3,10.15-72.35.86-4.82,1.75-9.46,2.65-14-15,39.71-35.62,69.5-48.55,85.34a377.42,377.42,0,0,0-2.94,41.86c0,8.68.7,15.23,2,20.1h2.23C538.94,787.7,550.46,766.55,563.18,733.73Z"/><path class="48be29f3-f224-46cd-8cea-1cb14fcf6d6a" d="M479.21,779.6q-.41-5.68-.46-12a201.64,201.64,0,0,1-14.33,27.08h1.52A72.6,72.6,0,0,0,479.21,779.6Z"/><path class="48be29f3-f224-46cd-8cea-1cb14fcf6d6a" d="M283,722.45l-2.57,13.22a548.32,548.32,0,0,1-14.53,59h39.59c4.46-25.25,8.74-49.12,13-71.52C306.68,723.14,294.86,722.45,283,722.45Z"/><path class="48be29f3-f224-46cd-8cea-1cb14fcf6d6a" d="M49.87,794.69h78.64c13-17.9,19.4-36,19.4-51.41,0-11.39-3.49-21.31-10.29-28.38a51.32,51.32,0,0,0-13.22-1.64C83.55,713.26,56.3,752.38,49.87,794.69Z"/><path class="48be29f3-f224-46cd-8cea-1cb14fcf6d6a" d="M691.34,794.69c3.26-2.47,6.39-6.54,9.52-11.76a41.64,41.64,0,0,1-14.64-9.61,73.8,73.8,0,0,0,3.31,21.37Z"/><path class="48be29f3-f224-46cd-8cea-1cb14fcf6d6a" d="M643.25,768.55a254.86,254.86,0,0,1-12.78,26.14h7.39a109.85,109.85,0,0,0,6.68-10.54A123.74,123.74,0,0,1,643.25,768.55Z"/><path class="48be29f3-f224-46cd-8cea-1cb14fcf6d6a" d="M719.82,684.75c-9.52,4.91-16.76,27-16.76,48.72,0,11.42,2,22.57,6.77,30.91,7.39-19,12.33-43.05,12.33-61.48C722.16,695.9,721.43,689.65,719.82,684.75Z"/><path class="48be29f3-f224-46cd-8cea-1cb14fcf6d6a" d="M428.05,717.09c8.56-9.5,13.54-19.84,15.35-28.12C437.48,695.11,432.13,705.28,428.05,717.09Z"/><path class="446bfc6f-8626-471c-8c7b-259eb4bf9979" d="M177.66,753.19a97.76,97.76,0,0,1-9.71,41.5h20.88a95,95,0,0,0,5.72-31.85c0-28.41-14-53.15-40.4-63.17C169.57,712.17,177.66,731.62,177.66,753.19Z"/><path class="446bfc6f-8626-471c-8c7b-259eb4bf9979" d="M181.27,663.49c10.6,8.87,26.16,14.53,46.31,14.53l3.3-30.84A63.93,63.93,0,0,1,213.21,645l-2.5,23.38A84,84,0,0,1,181.27,663.49Z"/><path class="446bfc6f-8626-471c-8c7b-259eb4bf9979" d="M229.43,716.47a96.89,96.89,0,0,0-17.83,6.36L218,738.6a70.89,70.89,0,0,1,7.71-4.72q1.34-5.94,2.58-11.9Z"/><path class="446bfc6f-8626-471c-8c7b-259eb4bf9979" d="M124.41,713.26a51.32,51.32,0,0,1,13.22,1.64c-6.79-7.06-16.89-11.28-30.1-11.28-43.95,0-72.16,45.27-75.64,91.07h18C56.3,752.38,83.55,713.26,124.41,713.26Z"/><path class="446bfc6f-8626-471c-8c7b-259eb4bf9979" d="M178.76,613.66c0,13.18,8.49,19.84,20.67,22.47a21.35,21.35,0,0,1-3.79-12.83c0-28,30.7-35.29,63.23-44.91q2.11-8.31,4.35-16.51C224.29,576.21,178.76,579.51,178.76,613.66Z"/><path class="446bfc6f-8626-471c-8c7b-259eb4bf9979" d="M482.43,559.32H464.54c-.18,2.91-.46,6.11-.86,9.64h35.62a83.3,83.3,0,0,0,.37-9.55c0-26.77-9.88-46.31-31.6-52.77,10,9.67,14.72,24.67,14.72,43.12A83.41,83.41,0,0,1,482.43,559.32Z"/><path class="446bfc6f-8626-471c-8c7b-259eb4bf9979" d="M283,722.45c11.83,0,23.65.69,35.48.72q1-5.24,2-10.37c-5.88.37-11.75.73-18,.73-12.12,0-24.24-.73-36.35-.73L263.58,726c-4.55,23.31-10.13,46.73-17.71,68.67h20.06a548.32,548.32,0,0,0,14.53-59Z"/><path class="446bfc6f-8626-471c-8c7b-259eb4bf9979" d="M445.94,528c-2.86-8.16-8.53-9.78-14.92-9.78-44.23,0-72.46,147.5-89.72,276.5h18.19C376.59,670,403.92,532.14,445.94,528Z"/><path class="446bfc6f-8626-471c-8c7b-259eb4bf9979" d="M299.56,542.06c-14.32,54-20.93,101.71-30.11,152.38,6.16.32,12.32.79,18.39,1.21,8.43-47.57,15.08-93,28.6-143.95,10.65-9.18,18.36-21.3,21.3-38.55l-18.32-3A61.41,61.41,0,0,1,299.56,542.06Z"/><path class="446bfc6f-8626-471c-8c7b-259eb4bf9979" d="M444.22,682.32c0-5.51-2.2-9.18-5.88-9.18-15.05,0-29.38,31.21-33.78,61.69a77.87,77.87,0,0,0,23.49-17.74c4.08-11.81,9.42-22,15.35-28.12A31.8,31.8,0,0,0,444.22,682.32Z"/><path class="446bfc6f-8626-471c-8c7b-259eb4bf9979" d="M465.93,794.69h15.22a121.62,121.62,0,0,1-2-15.09A72.6,72.6,0,0,1,465.93,794.69Z"/><path class="446bfc6f-8626-471c-8c7b-259eb4bf9979" d="M427,741.42c-1.79,1.07-3.63,2.09-5.57,3.05,0-.21.07-.42.1-.64a86.07,86.07,0,0,1-18.08,4.94v5.51c0,22,6.24,39.66,23.13,39.66h.09c-4.46-7.25-6.34-18-6.34-30v-5.51c35.85-5.77,57.11-30.9,63.38-54.17q.91-6.68,2-13.67c0-.15,0-.31,0-.46,0-15.36-7.62-27.64-22.79-29.75,3.93,5.3,5.91,12.3,5.91,20.11C468.82,701.31,454.75,728,427,741.42Z"/><path class="446bfc6f-8626-471c-8c7b-259eb4bf9979" d="M576,565a14.9,14.9,0,0,1,.79,5.08c-.37,44.8-27.54,106.12-45.9,139.53,1.05-6.75,2.21-13.6,3.46-20.48a291.55,291.55,0,0,1-23.64,34,377.3,377.3,0,0,0-2.94,41.86c0,16.88,2.59,25.81,7,29.75h11.89c-1.26-4.88-2-11.42-2-20.1a377.42,377.42,0,0,1,2.94-41.86c12.93-15.84,33.53-45.63,48.55-85.34,4.89-24.72,10.28-45.38,16-62.19a123.76,123.76,0,0,0,.84-13.67c0-17.91-5.07-32.76-22.22-34,3.9,6.22,5.34,14.87,5.34,24.38C576,562.9,576,563.94,576,565Z"/><path class="446bfc6f-8626-471c-8c7b-259eb4bf9979" d="M556.2,552.34c-9.91,0-31.58,79.31-42.23,147.61,18.36-33.41,45.53-94.73,45.9-139.53C559.87,555.28,558,552.34,556.2,552.34Z"/><path class="446bfc6f-8626-471c-8c7b-259eb4bf9979" d="M554.88,794.69h9.25a115.12,115.12,0,0,1-1.71-12.1A114.93,114.93,0,0,1,554.88,794.69Z"/><path class="446bfc6f-8626-471c-8c7b-259eb4bf9979" d="M639.18,552.34c-9.91,0-31.58,79.31-42.23,147.61,18.36-33.41,45.53-94.73,45.9-139.53C642.85,555.28,641,552.34,639.18,552.34Z"/><path class="446bfc6f-8626-471c-8c7b-259eb4bf9979" d="M637.86,794.69h8.88a90,90,0,0,1-2.2-10.54A109.85,109.85,0,0,1,637.86,794.69Z"/><path class="446bfc6f-8626-471c-8c7b-259eb4bf9979" d="M658.95,565a14.9,14.9,0,0,1,.79,5.08c-.37,44.8-27.54,106.12-45.9,139.53,1.05-6.75,2.21-13.6,3.46-20.48a291.55,291.55,0,0,1-23.64,34,377.3,377.3,0,0,0-2.94,41.86c0,16.88,2.59,25.81,7,29.75h11.89c-1.26-4.88-2-11.42-2-20.1a377.42,377.42,0,0,1,2.94-41.86c14.69-18,39.29-54,54.34-102.08,3.67-11.38,11-37.45,11-59.12,0-17.91-5.07-32.76-22.22-34,3.9,6.22,5.34,14.87,5.34,24.38C659,562.9,659,563.94,658.95,565Z"/><path class="446bfc6f-8626-471c-8c7b-259eb4bf9979" d="M741.62,764.57c9.55-4.41,18.36-13.58,25-30.84l.42,0c.41-4.15.67-8.3.67-12.42,0-30.6-11-57.1-32.2-60.85,10.11,11.11,15.32,30.18,15.32,51.2C750.8,729.69,746.4,748.42,741.62,764.57Z"/><path class="446bfc6f-8626-471c-8c7b-259eb4bf9979" d="M734.28,782.57a111.47,111.47,0,0,1-6.58,12.12h22.24c.41-.83.83-1.63,1.22-2.48,17.63-6.24,34.15-21.66,42.59-43.7,0-2.2-8.08-5.14-10.28-5.14-6.61,17.26-15.42,26.44-25,30.84,1-3.22,1.87-6.56,2.76-9.95A67.77,67.77,0,0,1,734.28,782.57Z"/><path class="446bfc6f-8626-471c-8c7b-259eb4bf9979" d="M686.22,773.32c-6.42-6.41-11.21-14.89-14.5-24.44-.76,2.06-1.51,4.07-2.26,6-.1,1.94-.17,3.83-.17,5.61,0,16.4,3.37,29,9,34.16h11.26A73.8,73.8,0,0,1,686.22,773.32Z"/><path class="446bfc6f-8626-471c-8c7b-259eb4bf9979" d="M670.39,744.74c-.07.5-.12,1-.18,1.51a7.86,7.86,0,0,1,.85.66C670.83,746.19,670.6,745.48,670.39,744.74Z"/><path class="446bfc6f-8626-471c-8c7b-259eb4bf9979" d="M719.82,684.75c-2.2-6.69-6-10.87-12-10.87-.74,0-1.84.37-2.57.37-10.65,2.2-19.09,26.07-19.09,49.57,0,19.83,5.88,38.92,22.4,43.7.43-1,.84-2.08,1.25-3.14-4.81-8.34-6.77-19.49-6.77-30.91C703.06,711.71,710.3,689.65,719.82,684.75Z"/><path class="446bfc6f-8626-471c-8c7b-259eb4bf9979" d="M671.72,748.88q-.34-1-.65-2a7.86,7.86,0,0,0-.85-.66c-.36,3-.61,5.87-.76,8.68C670.2,752.95,671,750.94,671.72,748.88Z"/><path d="M468.07,506.65c-7.93-7.65-19.19-12-34.12-12-58,0-84.45,73.44-110.16,201.22-4.41.37-8.81.73-13.59.73-7.17,0-14.7-.46-22.37-1-6.07-.42-12.23-.89-18.39-1.21,9.18-50.67,15.79-98.41,30.11-152.38a61.41,61.41,0,0,0,19.86-31.9c.56-2.13,1-4.34,1.44-6.65l-36-5.87c-5.51,13.22-10.28,26.8-14.69,41.13-27.91,9.55-63.89,16.16-87.76,29.38-23.5,12.85-34.52,32.68-34.52,51,0,18.86,11.54,36.18,33.36,44.32a84,84,0,0,0,29.43,4.88l2.5-23.38.8-7.46a69.67,69.67,0,0,1-14.58-1.4c-12.18-2.63-20.67-9.29-20.67-22.47,0-34.15,45.53-37.45,84.45-51.77q-2.24,8.2-4.35,16.51c-9.64,38-17.29,77.45-24.66,114.94-16.16.37-30.84,2.94-43.7,9.55L201.16,729a72.07,72.07,0,0,1,10.44-6.12,96.89,96.89,0,0,1,17.83-6.36l-1.1,5.51q-1.25,6-2.58,11.9a520.57,520.57,0,0,1-17.14,60.81h37.27c7.58-21.94,13.16-45.36,17.71-68.67l2.57-13.22c12.12,0,24.23.73,36.35.73,6.24,0,12.12-.37,18-.73q-1,5.13-2,10.37c-4.25,22.4-8.52,46.27-13,71.52H341.3c17.26-129,45.48-276.5,89.72-276.5,6.39,0,12.06,1.62,14.92,9.78,1.25,3.56,2,8.35,2,14.82a154.63,154.63,0,0,1-1.1,16.52h35.62a83.38,83.38,0,0,0,.37-9.55C482.79,531.32,478.09,516.31,468.07,506.65Z"/><path d="M154.14,699.67c-11.1-9-26-14.41-44.41-14.41C43.29,685.26,4.55,739.64.66,794.69H31.89c3.48-45.81,31.69-91.07,75.64-91.07,13.21,0,23.3,4.22,30.1,11.28s10.29,17,10.29,28.38c0,15.42-6.37,33.51-19.4,51.41h39.43a97.76,97.76,0,0,0,9.71-41.5C177.66,731.62,169.57,712.17,154.14,699.67Z"/><path d="M485.69,690.59q-1.06,7-2,13.67A54.84,54.84,0,0,0,485.69,690.59Z"/><path d="M570.69,537.51c-3.78-6-9.87-9.77-19.27-9.77-21.29,0-44.43,41.49-61,133.66q-2.66,15.2-4.79,29.19a54.84,54.84,0,0,1-2,13.67q-2.13,15.64-3.39,29.48h-.12c-13.94,37.4-31.9,60.15-53.52,60.21h-.09c-16.89,0-23.13-17.63-23.13-39.66v-5.51a86.06,86.06,0,0,0,18.08-4.94c1.88-.75,3.71-1.56,5.48-2.42,27.73-13.45,41.8-40.11,41.8-60.94,0-7.81-2-14.81-5.91-20.11-4.56-6.16-11.75-10-21.62-10-41.12,0-68.67,61-68.67,110.89,0,12.13,1.64,23.61,5.14,33.42h86.66a201.64,201.64,0,0,0,14.33-27.08q.06,6.31.46,12a121.63,121.63,0,0,0,2,15.09h33.53c-4.36-3.94-7-12.87-7-29.75a377.31,377.31,0,0,1,2.94-41.86,291.57,291.57,0,0,0,23.64-34A317.81,317.81,0,0,0,565,621c3.5-10.85,10.32-35,11-56,0-1,.06-2.07.06-3.09C576,552.37,574.6,543.72,570.69,537.51ZM404.56,734.83c4.41-30.48,18.73-61.69,33.78-61.69,3.67,0,5.88,3.67,5.88,9.18a31.8,31.8,0,0,1-.82,6.65c-1.81,8.28-6.79,18.62-15.35,28.12A77.87,77.87,0,0,1,404.56,734.83ZM514,699.95c10.65-68.3,32.31-147.61,42.23-147.61,1.84,0,3.67,2.94,3.67,8.08C559.51,605.21,532.34,666.53,514,699.95Z"/><path d="M653.67,537.51c-3.78-6-9.87-9.77-19.27-9.77-14.13,0-29.06,18.28-42.33,57.47-5.69,16.81-11.08,37.47-16,62.19-.9,4.54-1.78,9.19-2.65,14-4.75,27-8.25,51.31-10.15,72.35h-.13c-12.71,32.82-24.24,54-34.38,61h18.69a268.59,268.59,0,0,0,14.22-29.52s0,.1,0,.14q0,9.31.72,17.28a115.13,115.13,0,0,0,1.71,12.1h33.53c-4.36-3.94-7-12.87-7-29.75a377.31,377.31,0,0,1,2.94-41.86,291.57,291.57,0,0,0,23.64-34A317.81,317.81,0,0,0,648,621c3.5-10.85,10.32-35,11-56,0-1,.06-2.07.06-3.09C659,552.37,657.58,543.72,653.67,537.51ZM597,699.95c10.65-68.3,32.31-147.61,42.23-147.61,1.84,0,3.67,2.94,3.67,8.08C642.49,605.21,615.32,666.53,597,699.95Z"/><path d="M671.85,748.51v-.37a1.93,1.93,0,0,0-.79-1.24q.32,1,.65,2Z"/><path d="M767,733.76l-.42,0c-6.61,17.26-15.42,26.44-25,30.84,4.77-16.16,9.18-34.88,9.18-52.88,0-21-5.21-40.09-15.32-51.2-5.79-6.36-13.18-10.12-22.13-10.12-26.07,0-41.49,24.6-45.53,52.88l-13.22-3.31A222.69,222.69,0,0,0,646,734.2c-12.64,32.55-24.1,53.53-34.2,60.49h18.69a254.86,254.86,0,0,0,12.78-26.14,123.78,123.78,0,0,0,1.29,15.6,90,90,0,0,0,2.2,10.54h31.53c-5.62-5.16-9-17.76-9-34.16,0-1.77.07-3.67.17-5.61.15-2.8.4-5.72.76-8.68.06-.5.11-1,.18-1.51.21.73.45,1.45.68,2.17a1.93,1.93,0,0,1,.79,1.24v.37l-.14.37c3.29,9.54,8.08,18,14.5,24.44a41.64,41.64,0,0,0,14.64,9.61c-3.13,5.22-6.26,9.29-9.52,11.76H727.7a111.42,111.42,0,0,0,6.58-12.12,67.77,67.77,0,0,0,27-18.3,79.78,79.78,0,0,0,15.61-25.4C776.87,736.79,769.67,734.06,767,733.76Zm-61.75-59.52c.73,0,1.83-.37,2.57-.37,5.93,0,9.78,4.17,12,10.87,1.61,4.9,2.34,11.15,2.34,18.14,0,18.43-4.95,42.46-12.33,61.48-.41,1.06-.83,2.11-1.25,3.14-16.52-4.77-22.4-23.87-22.4-43.7C686.18,700.32,694.62,676.45,705.27,674.24Z"/></svg>