<svg id="4964f7cb-a17f-4580-a75d-e27fbc905c78" data-name="Layer 1" xmlns="http://www.w3.org/2000/svg" viewBox="0 0 450 300"><defs><style>.\35 18362fb-849d-4c29-b641-db7342e2a2dc{fill:#3b5162;}.\32 1176df0-d974-4cfb-860b-e8fb5cbacf7f{fill:#c1dbd5;}.\36 7e45a93-b085-4ded-902e-07b92861b913{fill:#faebcc;}.\38 b456356-fac9-4b14-a0c5-7bc5f7be97d9{fill:#3a3c91;}.a78bff8f-a13b-439a-8179-2c6dbdccef9c{fill:#d8464f;}.\38 8381fb5-d42a-4885-ab38-a01df4c30af2{fill:#feffbe;}.\33 529f78f-cec7-4bbd-98ea-340d524c84da{fill:#efaba4;}.\36 17b311d-c2dc-4fd1-9b29-a85c4528e804{fill:#aabdd1;}.\35 cbce5ee-3c68-49e1-b511-ad0bf83df82c{fill:#d1d3d4;}.\33 a470ffa-7b7d-4792-b6e7-4ed869af18c9{fill:#de93b2;}</style></defs><title>1</title><path class="518362fb-849d-4c29-b641-db7342e2a2dc" d="M123.51,140.45c-2.33,18-8.51,31.21-16.52,41L208.52,269.2,268,200.41Z"/><path class="21176df0-d974-4cfb-860b-e8fb5cbacf7f" d="M123.51,140.45l-17.3-7.18L.61,89.46l106.38,92C115,171.66,121.18,158.41,123.51,140.45Z"/><path class="67e45a93-b085-4ded-902e-07b92861b913" d="M107,181.42.61,89.46l58.56,98.06L69.61,205C82,201.46,96.17,194.63,107,181.42Z"/><polygon class="8b456356-fac9-4b14-a0c5-7bc5f7be97d9" points="146.74 116.96 290.52 143.22 297.03 107.59 252.83 43.64 146.74 116.96"/><polygon class="a78bff8f-a13b-439a-8179-2c6dbdccef9c" points="284.1 22.03 311.73 27.08 297.03 107.59 320.95 142.21 383.54 98.95 315.42 0.38 284.1 22.03"/><polygon class="88381fb5-d42a-4885-ab38-a01df4c30af2" points="284.1 22.03 252.83 43.64 297.03 107.59 311.73 27.08 284.1 22.03"/><path class="3529f78f-cec7-4bbd-98ea-340d524c84da" d="M107,180.92c-10.82,13.2-25,20-37.39,23.55l57,95.38h55l26.93-31.15Z"/><polygon class="617b311d-c2dc-4fd1-9b29-a85c4528e804" points="140.2 8.57 72.15 53.91 145.44 90.18 140.2 8.57"/><path class="5cbce5ee-3c68-49e1-b511-ad0bf83df82c" d="M417,266.53a64.68,64.68,0,1,0-120.12,33.32H407.76A64.37,64.37,0,0,0,417,266.53Z"/><polygon class="3a470ffa-7b7d-4792-b6e7-4ed869af18c9" points="374.52 255.47 338.61 147.44 450.13 170.36 374.52 255.47"/></svg>