<?xml version="1.0" encoding="utf-8"?>
<!-- Generator: Adobe Illustrator 21.0.2, SVG Export Plug-In . SVG Version: 6.00 Build 0)  -->
<svg version="1.1" id="Layer_1" xmlns="http://www.w3.org/2000/svg" xmlns:xlink="http://www.w3.org/1999/xlink" x="0px" y="0px"
	 viewBox="0 0 300 300" style="enable-background:new 0 0 300 300;" xml:space="preserve">
<style type="text/css">
	.st0{fill:none;}
	.st1{fill:#E2E2E2;}
	.st2{fill:#D74750;}
</style>
<path class="st0" d="M194.3,20.1h-39.5v26c46.3,5.4,85,35.5,102.5,76.9c4.3-9.6,6.6-20.6,6.6-32.1C264,51.7,239.2,20.1,194.3,20.1z"
	/>
<g>
	<path class="st1" d="M194.3,181.6h-62.1v-136c-66.7,4-119.6,59.4-119.6,127.1C12.6,243,69.6,300,140,300s127.4-57,127.4-127.4
		c0-7.1-0.6-14.1-1.7-20.9C249.3,170.2,224.6,181.6,194.3,181.6z"/>
</g>
<g>
	<path class="st2" d="M154.8,46.1v115.3h39.5c31,0,52.8-15.6,63.1-38.4C239.8,81.7,201.1,51.5,154.8,46.1z"/>
</g>
<path d="M194.3,0h-62.1v45.5v136h62.1c30.4,0,55-11.3,71.3-29.8c13.9-15.8,21.8-37,21.8-60.8C287.4,39.5,250.6,0,194.3,0z
	 M194.3,161.4h-39.5V46.1v-26h39.5c44.9,0,69.7,31.6,69.7,70.8c0,11.6-2.3,22.5-6.6,32.1C247.1,145.8,225.3,161.4,194.3,161.4z"/>
</svg>
