<?xml version="1.0" encoding="utf-8"?>
<!-- Generator: Adobe Illustrator 21.0.2, SVG Export Plug-In . SVG Version: 6.00 Build 0)  -->
<svg version="1.1" id="Layer_1" xmlns="http://www.w3.org/2000/svg" xmlns:xlink="http://www.w3.org/1999/xlink" x="0px" y="0px"
	 viewBox="0 0 838 558" style="enable-background:new 0 0 838 558;" xml:space="preserve">
<style type="text/css">
	.st0{fill:#FFFFFF;}
	.st1{fill:#3B5063;}
	.st2{fill:#D94650;}
	.st3{fill:#426875;}
	.st4{fill:none;stroke:#686D71;stroke-width:4.24;stroke-linecap:round;stroke-linejoin:round;}
	.st5{fill:#86AFA7;}
	.st6{fill:#A7C6C0;}
	.st7{fill:#F0ABA4;}
	.st8{fill:#3C3C92;}
	.st9{fill:none;stroke:#000000;stroke-width:4.24;stroke-linecap:round;stroke-linejoin:round;}
	.st10{fill:#67686B;}
</style>
<title>home-card-pass</title>
<rect x="44" y="-0.2" class="st0" width="489" height="355.8"/>
<image style="overflow:visible;opacity:0.75;enable-background:new    ;" width="278" height="114" xlink:href="27A1F64D461DCCDF.png"  transform="matrix(0.9964 0 0 0.9912 199.33 403.69)">
</image>
<path class="st1" d="M445.8,446c0,0-43.4,10.3-65.3-11C356,411.1,258.4,424.7,238,450.3c-17.2,21.6-19.5,35.6-19.5,35.6
	s25.9-2.1,32.7-14.8c6.8-12.7,29.7-22.9,29.7-22.9s51.7-14.4,90.8,8.5S445.8,446,445.8,446z"/>
<circle class="st2" cx="297.1" cy="177.6" r="69.3"/>
<polygon class="st0" points="332.3,178 275.4,210.9 275.4,145.1 "/>
<image style="overflow:visible;opacity:0.75;enable-background:new    ;" width="284" height="103" xlink:href="27A1F64D461DCCDD.png"  transform="matrix(0.9965 0 0 0.9903 7.33 427.69)">
</image>
<path class="st3" d="M37.4,477.8c0,0,33.9,3.4,56-8.5s41.6,0.9,60.2,9.3s124.4,47.2,102.5-14.2c1.4-3.7-22.2,24.5-69.4-2.8
	c-50.7-29.3-152.9-6.8-151.8-5.1C34.9,456.6,15.4,467.7,37.4,477.8z"/>
<path class="st4" d="M484,445.2c0,0-0.6,13.6-19.2,13.6S445,445.2,445,445.2"/>
<path class="st5" d="M3.5,459.2c-11.4-6.7,78.3-11.3,123.8,2.5c21.1,6.4,38.5-1,58.5-33.1c12.4-19.8,124.1,38.2,147.6,11
	c20-23.1,46.6-21.2,78-2.5s33.9,8.5,33.9,8.5c-56.8-47.5-72.1-45.8-92.5-37.3c-19.8,8.2-32.7,19.9-65.6,14.8
	c-0.8-0.1-91.3-35.2-116.7-9.7s-39.4,41.1-93.7,20.8S3.9,457,3.9,457"/>
<image style="overflow:visible;opacity:0.75;enable-background:new    ;" width="398" height="212" xlink:href="27A1F64D461DCCE3.png"  transform="matrix(0.9975 0 0 0.9953 449.33 361.69)">
</image>
<path class="st0" d="M803.5,455.5l-190.7-77.2c-6.9-2.8-14.6-2.6-21.3,0.6L471,436.2c-5.9,2.8-8.4,9.8-5.6,15.7
	c1.3,2.7,3.5,4.8,6.2,5.9l191.2,77.4c6.6,2.7,14,2.4,20.4-0.6l120.9-57.5c5.9-2.8,8.4-9.8,5.6-15.7
	C808.4,458.7,806.2,456.6,803.5,455.5z M486.3,453.7c-6.5,0-11.7-3-11.7-6.8s5.2-6.8,11.7-6.8s11.7,3,11.7,6.8
	S492.8,453.7,486.3,453.7L486.3,453.7z"/>
<path class="st6" d="M37.4,477.8c0,0-23.6-1.2-35.2-13.8c-3.4-3.7-3.4-9.4,0-13.1c8.3-9.2,26.7-25.9,48.9-22.2
	C51.1,428.7,23,463.4,37.4,477.8z"/>
<polygon class="st7" points="719.1,476.9 644.9,446.8 594,471 668.2,501 "/>
<polygon class="st8" points="703.1,442.6 675.6,431.5 656.8,440.5 684.2,451.6 "/>
<path class="st9" d="M539.5,466.8c0,0,0-30.5-13.6-30.5s-18.7,20.4,19.5,17.8s43.3-9.3,32.2-14.4s-9.3-13.6,2.5-13.6
	s23.8-6.8,17.8-12.7s21.2-2.5,33.1,5.9"/>
<path class="st4" d="M484,445.2c0,0-0.6-13.6-19.2-13.6S445,445.2,445,445.2"/>
<path class="st10" d="M456,450.7v-10.8c0-2-2.4-3.3-4.5-2.5l-18.1,6.9c-2.8,1.1-2.4,4.6,0.5,5.2l18.1,3.9
	C454,453.8,456,452.5,456,450.7z"/>
</svg>
