<svg id="Layer_1" data-name="Layer 1" xmlns="http://www.w3.org/2000/svg" viewBox="0 0 300 300"><defs><style>.cls-1{fill:#e2e2e2;}.cls-2{fill:#3c3c92;}.cls-3{fill:#fff;}.cls-4{fill:none;stroke:#3c3c92;stroke-linecap:round;stroke-miterlimit:10;stroke-width:7px;}</style></defs><title>home-icons</title><path class="cls-1" d="M104.3,197.7,61.17,154.57,215.74,0H61.27A61.45,61.45,0,0,0,0,61.27V238.73A61.45,61.45,0,0,0,61.27,300H238.73A61.45,61.45,0,0,0,300,238.73V61.27A61,61,0,0,0,283,19ZM66.7,208.19l-21.1,5.65,5.65-21.1h0L61.4,154.92l43.13,43.13L66.7,208.19Z"/><path class="cls-2" d="M104.3,197.7,283,19A61.09,61.09,0,0,0,238.73,0h-23L61.17,154.57Z"/><polygon class="cls-3" points="61.4 154.92 51.26 192.74 66.7 208.19 104.53 198.05 61.4 154.92"/><polygon class="cls-2" points="66.7 208.19 66.7 208.19 45.61 213.84 66.7 208.19"/><polygon class="cls-2" points="51.26 192.74 45.61 213.84 51.26 192.74 51.26 192.74"/><polygon class="cls-2" points="45.61 213.84 66.7 208.19 51.26 192.74 45.61 213.84"/><path class="cls-4" d="M39,225s57,38,118,0,103-38,77-13-71,58-34,49,37-4,37,6,42.5,0,42.5,0"/></svg>