<svg id="Layer_1" data-name="Layer 1" xmlns="http://www.w3.org/2000/svg" viewBox="0 0 300 300"><defs><style>.cls-1{fill:#de93b2;}.cls-2{fill:#e2e2e2;}.cls-3{fill:#fff;}</style></defs><title>home-icons</title><polygon class="cls-1" points="215.05 216.5 300 129.54 300 99.02 245.44 154.87 149.13 60.79 208.51 0 178.69 0 88.23 92.61 215.05 216.5"/><path class="cls-2" d="M238.73,0H208.51L149.13,60.79l96.31,94.08L300,99V61.27A61.45,61.45,0,0,0,238.73,0Z"/><path class="cls-2" d="M137,140.25,88.23,92.61,178.7,0H61.27A61.45,61.45,0,0,0,0,61.27V145H137Z"/><path class="cls-2" d="M215.05,216.5,201,202.77V300h37.73A61.45,61.45,0,0,0,300,238.73V129.54Z"/><polygon points="158.24 161 183 161 183 183 180.76 183 201 202.77 201 145 183 145 141.87 145 158.24 161"/><path d="M180.76,183H137V161h21.24l-16.38-16H0v93.73A61.45,61.45,0,0,0,61.27,300H201V202.77ZM69,290a59,59,0,1,1,59-59A59,59,0,0,1,69,290Z"/><path class="cls-2" d="M69,172a59,59,0,1,0,59,59A59,59,0,0,0,69,172ZM68,274a43,43,0,1,1,43-43A43,43,0,0,1,68,274Z"/><circle class="cls-3" cx="68" cy="231" r="43"/><polygon class="cls-3" points="183 145 183 123 137 123 137 140.25 141.87 145 183 145"/><polygon class="cls-3" points="141.87 145 137 140.25 137 145 141.87 145"/><polygon class="cls-2" points="183 161 158.24 161 180.76 183 183 183 183 161"/><polygon class="cls-2" points="137 161 137 183 180.76 183 158.24 161 137 161"/></svg>