<svg id="Layer_1" data-name="Layer 1" xmlns="http://www.w3.org/2000/svg" viewBox="0 0 300 300"><defs><style>.cls-1{fill:#e2e2e2;}.cls-2{fill:#d94650;}</style></defs><title>home-icons</title><path class="cls-1" d="M172.38,288a52.6,52.6,0,0,1-11-16.89,55.25,55.25,0,0,1-4-21.24,50.33,50.33,0,0,1,4.86-22,49.58,49.58,0,0,1,13.54-17.21,65.07,65.07,0,0,1,20.76-11.1,83.44,83.44,0,0,1,26.5-4,104.78,104.78,0,0,1,20.17,1.93,77,77,0,0,1,17.52,5.47v-9.65q0-16.73-8.69-25.74t-25.76-9a63.11,63.11,0,0,0-24.14,4.83A109.39,109.39,0,0,0,178,177.51L165.9,150.16q29.73-21.55,64.19-21.56,33.27,0,51.67,17.86,16.78,16.29,18.24,45.85v-131A61.45,61.45,0,0,0,238.73,0H61.27A61.45,61.45,0,0,0,0,61.27V238.73A61.45,61.45,0,0,0,61.27,300H191c-.62-.23-1.23-.46-1.84-.71A49.72,49.72,0,0,1,172.38,288Z"/><path class="cls-1" d="M266.59,273.07a70,70,0,0,1-25,22.52A67.92,67.92,0,0,1,231.15,300h7.59a60.76,60.76,0,0,0,31.69-8.89,26.56,26.56,0,0,1-2.95-8.71Z"/><path class="cls-1" d="M229.5,219.66q-15.31,0-25,7.56t-9.72,19.14a24,24,0,0,0,7.66,18.18,26.38,26.38,0,0,0,18.84,7.24,47.59,47.59,0,0,0,19-3.86,34.53,34.53,0,0,0,14-10.3q6.47-5.47,6.48-12.23V226.09a90.54,90.54,0,0,0-15.31-4.67A75.94,75.94,0,0,0,229.5,219.66Z"/><path d="M92.2-.21h37.91L214,220.39H169.88l-20.51-55H72.32l-20.2,55H8Zm49.4,135.47L111.16,48.57,79.46,135.26Z"/><path class="cls-2" d="M300,238.73V192.31q-1.47-29.54-18.24-45.85-18.4-17.86-51.67-17.86-34.45,0-64.19,21.56L178,177.51a109.39,109.39,0,0,1,24.14-14.16,63.11,63.11,0,0,1,24.14-4.83q17.07,0,25.76,9t8.69,25.74v9.65a77,77,0,0,0-17.52-5.47A104.78,104.78,0,0,0,223,195.53a83.44,83.44,0,0,0-26.5,4,65.07,65.07,0,0,0-20.76,11.1,49.58,49.58,0,0,0-13.54,17.21,50.33,50.33,0,0,0-4.86,22,55.25,55.25,0,0,0,4,21.24,52.6,52.6,0,0,0,11,16.89,49.72,49.72,0,0,0,16.78,11.26c.61.25,1.22.48,1.84.71h40.15a67.92,67.92,0,0,0,10.42-4.41,70,70,0,0,0,25-22.52l.88,9.33a26.56,26.56,0,0,0,2.95,8.71A61.38,61.38,0,0,0,300,238.73Zm-39.29,6.67q0,6.76-6.48,12.23a34.53,34.53,0,0,1-14,10.3,47.59,47.59,0,0,1-19,3.86,26.38,26.38,0,0,1-18.84-7.24,24,24,0,0,1-7.66-18.18q0-11.58,9.72-19.14t25-7.56a75.94,75.94,0,0,1,15.9,1.77,90.54,90.54,0,0,1,15.31,4.67Z"/></svg>