<svg id="efbb7de1-504d-4556-9cb4-08cd33aa3d35" data-name="Layer 1" xmlns="http://www.w3.org/2000/svg" viewBox="0 0 300 300"><defs><style>.fa26817e-88d3-4bae-901f-1f3c9c5e4f87{fill:#da4650;}.\31 6276ef9-2139-4108-b22a-bbe48d3d13a8{fill:#fff;}</style></defs><title>0</title><path class="fa26817e-88d3-4bae-901f-1f3c9c5e4f87" d="M149.28,1.74H56.16A56.16,56.16,0,0,0,0,57.91V244.15a56.16,56.16,0,0,0,56.16,56.16H242.4a56.16,56.16,0,0,0,56.16-56.16V57.91A56.16,56.16,0,0,0,242.4,1.74Z"/><path class="16276ef9-2139-4108-b22a-bbe48d3d13a8" d="M217.25,79.89H81.72a22.74,22.74,0,0,0-22.67,22.67v96.93a22.74,22.74,0,0,0,22.67,22.67H217.25a22.74,22.74,0,0,0,22.67-22.67V102.56A22.74,22.74,0,0,0,217.25,79.89ZM87.81,95.33H210.75l.11.28-3.26,2.95L196,109l-37.2,33.62a14.21,14.21,0,0,1-19.06,0L102.56,109,91,98.56,87.7,95.61Zm134.46,98a12.61,12.61,0,0,1-12.57,12.57H89.28a12.61,12.61,0,0,1-12.57-12.57V108.74a12.48,12.48,0,0,1,.08-1.36l59.83,54.08a18.89,18.89,0,0,0,25.33,0L222.15,107a12.48,12.48,0,0,1,.12,1.7Z"/><path class="fa26817e-88d3-4bae-901f-1f3c9c5e4f87" d="M102.56,109l37.2,33.62a14.21,14.21,0,0,0,19.06,0L196,109,207.6,98.56l3.26-2.95-.11-.28H87.81l-.11.28L91,98.56Z"/><path class="fa26817e-88d3-4bae-901f-1f3c9c5e4f87" d="M161.95,161.46a18.89,18.89,0,0,1-25.33,0L76.79,107.38a12.48,12.48,0,0,0-.08,1.36v84.57a12.61,12.61,0,0,0,12.57,12.57H209.7a12.61,12.61,0,0,0,12.57-12.57V108.74a12.48,12.48,0,0,0-.12-1.7Z"/></svg>