<svg id="3fbf2810-fd78-4201-9f6d-07a80c8412e0" data-name="Layer 1" xmlns="http://www.w3.org/2000/svg" viewBox="0 0 300 300"><defs><style>.\30 8911cb9-ab6a-4365-bf3b-feaf7c523d29{fill:#de93b2;}.\35 cb028f0-a241-4be5-8318-a34c7c1fe5f2{fill:#e2e2e2;}.e145fb3a-4016-45b6-bf92-79010a93233e{fill:#fff;}</style></defs><title>icons</title><rect class="08911cb9-ab6a-4365-bf3b-feaf7c523d29" x="110.13" y="37.64" width="163.46" height="138.78" transform="translate(131.88 -104.32) rotate(45)"/><rect class="5cb028f0-a241-4be5-8318-a34c7c1fe5f2" x="132.32" y="47.65" width="99.43" height="97.18" transform="translate(-14.74 156.91) rotate(-45)"/><path d="M183,145H0v93.7A61.5,61.5,0,0,0,61.3,300H201V202.8h0V145ZM69,290a59,59,0,1,1,59-59A59,59,0,0,1,69,290Z"/><path class="5cb028f0-a241-4be5-8318-a34c7c1fe5f2" d="M69,172a59,59,0,1,0,59,59A59,59,0,0,0,69,172ZM68,274a43,43,0,1,1,43-43A43.06,43.06,0,0,1,68,274Z"/><circle class="e145fb3a-4016-45b6-bf92-79010a93233e" cx="68" cy="231" r="43"/><polygon class="5cb028f0-a241-4be5-8318-a34c7c1fe5f2" points="158.2 161 137 161 137 183 180.8 183 183 183 183 161 158.2 161"/><polygon class="e145fb3a-4016-45b6-bf92-79010a93233e" points="137 123 137 140.2 137 145 141.9 145 183 145 183 123 137 123"/></svg>