<svg id="9e025604-ce0f-4cc7-882b-64b0fca7cf93" data-name="Layer 1" xmlns="http://www.w3.org/2000/svg" viewBox="0 0 300 300"><defs><style>.\34 bf10e4a-83d3-4ad9-b8b9-510d638766b5,.\37 368660c-846f-4b09-a23c-01aa4e30eb20{fill:#fff;}.\34 bf10e4a-83d3-4ad9-b8b9-510d638766b5{stroke:#231f20;stroke-width:0.41px;}.\34 bf10e4a-83d3-4ad9-b8b9-510d638766b5,.\39 261abb1-1b14-47a2-80c8-951ffbd48635,.bee6076c-e590-4443-8c09-e00f0c94a058{stroke-miterlimit:10;}.\34 3b5db87-c13e-4f70-a409-3f75ae650b2e{fill:#da4650;}.\39 261abb1-1b14-47a2-80c8-951ffbd48635,.bee6076c-e590-4443-8c09-e00f0c94a058{fill:none;stroke:#fff;}.\39 261abb1-1b14-47a2-80c8-951ffbd48635{stroke-width:14.54px;}.bee6076c-e590-4443-8c09-e00f0c94a058{stroke-width:17.77px;}</style></defs><title>0</title><path class="4bf10e4a-83d3-4ad9-b8b9-510d638766b5" d="M288.71,205.77V94a149.69,149.69,0,0,0-81.77-82.1H93.63A149.69,149.69,0,0,0,11.85,94v111.8a149.69,149.69,0,0,0,81.77,82.1H206.94A149.69,149.69,0,0,0,288.71,205.77Z"/><path class="43b5db87-c13e-4f70-a409-3f75ae650b2e" d="M150.28.74H57.16A56.16,56.16,0,0,0,1,56.91V243.15a56.16,56.16,0,0,0,56.16,56.16H243.4a56.16,56.16,0,0,0,56.16-56.16V56.91A56.16,56.16,0,0,0,243.4.74Z"/><path class="9261abb1-1b14-47a2-80c8-951ffbd48635" d="M243.23,194.4a51.42,51.42,0,0,1-51.45,51.39h-83A51.42,51.42,0,0,1,57.34,194.4V105.92a51.42,51.42,0,0,1,51.45-51.39h83a51.42,51.42,0,0,1,51.45,51.39Z"/><path class="bee6076c-e590-4443-8c09-e00f0c94a058" d="M195.92,149.87c-.55,25.17-20.43,45.59-45.64,45.59a45.61,45.61,0,0,1-45.64-45.59c0-25.18,20.44-46.33,45.64-45.59C181,105.18,196.47,124.78,195.92,149.87Z"/><ellipse class="7368660c-846f-4b09-a23c-01aa4e30eb20" cx="206.5" cy="93.5" rx="12.8" ry="12.79"/></svg>