<svg id="e132bb88-2473-4047-83f3-d7cde567eadd" data-name="Layer 1" xmlns="http://www.w3.org/2000/svg" viewBox="0 0 300 300"><defs><style>.\38 18ffb5b-7d0d-4640-8f72-afcd22941de8{fill:#d94650;}</style></defs><title>icons</title><path d="M82.63,3h37.19l82.34,213.19H158.88L138.76,163H63.1L43.28,216.19H0Zm48.48,130.95L101.28,50.16,70.17,133.95Z"/><path class="818ffb5b-7d0d-4640-8f72-afcd22941de8" d="M199.76,299.95a59,59,0,0,1-21.06-3.71,50.6,50.6,0,0,1-16.91-10.38,48.32,48.32,0,0,1-11.12-15.57,47.17,47.17,0,0,1-4-19.57,43.13,43.13,0,0,1,4.89-20.31,46.58,46.58,0,0,1,13.64-15.87,67.7,67.7,0,0,1,20.91-10.23,91.25,91.25,0,0,1,26.69-3.71,115.09,115.09,0,0,1,20.31,1.78,82.89,82.89,0,0,1,17.65,5v-8.9q0-15.42-8.75-23.73t-25.95-8.3a68.72,68.72,0,0,0-24.32,4.45A113,113,0,0,0,167.43,184l-12.16-25.21q30-19.87,64.65-19.87,33.51,0,52,16.46T290.51,203v48.34q0,6.23,2.22,8.9t7.26,3V297a88.71,88.71,0,0,1-17.5,2.08q-11.27,0-17.35-5a21.65,21.65,0,0,1-7.56-13.35l-.89-8.6a68.79,68.79,0,0,1-25.21,20.76A72.4,72.4,0,0,1,199.76,299.95ZM211,270.89a51.8,51.8,0,0,0,19.13-3.56q9-3.56,14.09-9.49,6.52-5,6.53-11.27V228.77a97.56,97.56,0,0,0-15.42-4.3,83.28,83.28,0,0,0-16-1.63q-15.43,0-25.21,7t-9.79,17.65A21.22,21.22,0,0,0,192,264.21Q199.75,270.88,211,270.89Z"/></svg>