<svg id="d0fc805d-aa13-474b-ae0d-bbf0735e40cf" data-name="Layer 1" xmlns="http://www.w3.org/2000/svg" viewBox="0 0 300 300"><defs><style>.\30 bb47e06-27bf-4f55-bb8f-f335b415b2f3{fill:#da4650;}.\30 869dbc9-d23f-42ce-8ec6-2dd621f2591c{fill:#fff;}</style></defs><title>0</title><path class="0bb47e06-27bf-4f55-bb8f-f335b415b2f3" d="M149.5.31H56.24A56.24,56.24,0,0,0,0,56.55V243.07a56.24,56.24,0,0,0,56.24,56.24H242.76A56.24,56.24,0,0,0,299,243.07V56.55A56.24,56.24,0,0,0,242.76.31Z"/><path class="0869dbc9-d23f-42ce-8ec6-2dd621f2591c" d="M249.17,88a81.75,81.75,0,0,1-23.49,6.44,41,41,0,0,0,18-22.63,81.87,81.87,0,0,1-26,9.92A40.93,40.93,0,0,0,148,119,116.1,116.1,0,0,1,63.71,76.3a40.94,40.94,0,0,0,12.66,54.6,40.73,40.73,0,0,1-18.52-5.12c0,.17,0,.34,0,.51a40.92,40.92,0,0,0,32.8,40.1,41,41,0,0,1-18.47.7,40.94,40.94,0,0,0,38.2,28.4A82,82,0,0,1,59.59,213a83,83,0,0,1-9.76-.57,115.75,115.75,0,0,0,62.69,18.38c75.22,0,116.36-62.32,116.36-116.36q0-2.66-.12-5.29A83.09,83.09,0,0,0,249.17,88Z"/></svg>