<svg id="c0527093-ca59-4bbf-8508-dae9736cd7c7" data-name="Layer 1" xmlns="http://www.w3.org/2000/svg" viewBox="0 0 300 300"><defs><style>.\33 2c53e08-0da6-45b3-a1ba-fca8d53b5378{fill:none;}.ec117437-746f-4b25-a015-ffe423eaeb6c{fill:#e2e2e2;}.\35 a43856b-dd7b-4ae3-8a32-d8e46406b1f0{fill:#d74750;}</style></defs><title>SAAS Interactive Icons</title><path class="32c53e08-0da6-45b3-a1ba-fca8d53b5378" d="M195.3,20.1H155.8v26A127.41,127.41,0,0,1,258.3,123a78.74,78.74,0,0,0,6.6-32.1C265,51.7,240.2,20.1,195.3,20.1Z"/><path class="ec117437-746f-4b25-a015-ffe423eaeb6c" d="M195.3,181.6H133.2V45.6a127.32,127.32,0,1,0,135.2,127,131,131,0,0,0-1.7-20.9C250.3,170.2,225.6,181.6,195.3,181.6Z"/><path class="5a43856b-dd7b-4ae3-8a32-d8e46406b1f0" d="M155.8,46.1V161.4h39.5c31,0,52.8-15.6,63.1-38.4A127.9,127.9,0,0,0,155.8,46.1Z"/><path d="M195.3,0H133.2V181.5h62.1c30.4,0,55-11.3,71.3-29.8,13.9-15.8,21.8-37,21.8-60.8C288.4,39.5,251.6,0,195.3,0Zm0,161.4H155.8V20.1h39.5c44.9,0,69.7,31.6,69.7,70.8a78.39,78.39,0,0,1-6.6,32.1C248.1,145.8,226.3,161.4,195.3,161.4Z"/></svg>