<svg id="7131fccb-1689-40d2-b1ff-08c4c892e4a6" data-name="Layer 1" xmlns="http://www.w3.org/2000/svg" viewBox="0 0 1483.33 106.5"><defs><style>.\31 a11bdff-d70e-42cb-8fd4-a4cc8124b939{fill:#3a3c91;}</style></defs><title>1</title><path class="1a11bdff-d70e-42cb-8fd4-a4cc8124b939" d="M1372.43,86.65q15.18-2.83,20.24-22.27,2.83-11.54,1.82-20h-22.07V.21h43.12V40.9q0,24.09-9.92,42.82t-33.2,22Zm68,0q15.18-2.83,20-22.27,2.83-11.54,2-20h-22.07V.21h43.32V40.9q0,24.09-9.92,43t-33.4,21.76Z"/><path class="1a11bdff-d70e-42cb-8fd4-a4cc8124b939" d="M43.06,19.53q-14,2.63-19.64,20.24A55.32,55.32,0,0,0,20.59,57a12.1,12.1,0,0,0,.1,1.72c.07.47.17,1.52.3,3.14H43.06V106H-.06V65.28q0-30,11.94-46.16T43.06.5Zm68.22,0q-11.14,1.82-16.9,12.55a51.34,51.34,0,0,0-5.77,24.7c0,.81,0,1.62.1,2.43a13.51,13.51,0,0,0,.51,2.63h22.07V106H68V65.28q0-24.09,10.12-43T111.28.5Z"/></svg>