<svg id="a84a0a93-34be-4e06-8ea7-fa938299c9ec" data-name="Layer 1" xmlns="http://www.w3.org/2000/svg" viewBox="0 0 817 300"><title>0</title><path d="M122.82,19.76c-4.5,27-3.21,53.67-1.42,80.41-1.32-.24-2.83-.26-2.89-.57-6-30.16-6.87-60.55-3.74-91.09.33-3.23.56-7.3,4.21-8,4.66-.89,6.19,3.62,7.31,6.94a192.19,192.19,0,0,1,5,18.72c4.19,18.27,14,33,25,48.17,14.28,19.7,23,43.33,31.15,66.46,3.94,11.21,9.66,13.06,20.37,12.35,56.74-3.8,113.49-7.67,170.31-9.94,73-2.92,146.19-2.71,219.12-6.87,66.43-3.79,133-6.94,199-16.41a35.13,35.13,0,0,1,5.5-.75c5,.09,12.53-7.78,14.37-.46,2.26,9-8.55,7.68-13.92,8.72-30,5.81-60.63,7.42-91.05,9.84C600.92,146,490.36,149.23,379.75,152c-47.58,1.18-95.32,2.08-144.11,8.27a33.51,33.51,0,0,0,24.85,7.49c13.84-1.1,27.7-2.1,41.57-2.89,3.08-.17,7.3-.09,7,4.44-.18,3.19-3.78,3.68-6.53,4-3.68.4-7.39.46-11.09.71-18.88,1.26-37.3,2.31-54.52,13.05-13.73,8.56-30.83,9.69-47,11-10.85.86-14.38,2.37-10.28,14.8,8.24,25,14.06,50.81,20.65,76.34,1,3.77,2.9,9.27-2.08,11-5.25,1.78-7-4.18-8.06-7.64-9-28.62-20.49-56.4-26.44-86-5.53-27.53-13.42-32.85-42.49-32.68-21.31.13-42.63.41-63.93-.07-16.65-.38-33.29-1.78-49.92-2.85-3.12-.2-7.57-.22-7.37-4.39s4.73-4.3,7.76-3.94c18.52,2.23,37-.46,55.46-.46,26.89,0,53.6-2.8,80.33-5.35,5.9-.56,10.39-2,8.73-9.06C142.39,105,129.52,63.13,122.82,19.76Zm18.91,48.1c7.57,30.36,13.59,57.13,21.21,83.43,2.22,7.68,11.4,5.27,17.09,3.32,6.65-2.28,2.56-8,.93-11.74-7.53-17.34-15-34.73-23.52-51.59C153.92,84.3,152.61,75.52,141.74,67.86Zm83.53,105c-9.79-2.88-16.4-2.35-22.94-.93a4,4,0,0,0-3.26,5.19c.72,3,3,3.2,5.35,2.48C210.34,177.83,216.22,175.85,225.27,172.91Zm-54.12,2.42c4.94,4.43,10.17,7.81,16.87,5.15.67-.27,1.28-2.86.78-3.55C183.89,170.15,177.38,174.21,171.15,175.33Z"/></svg>