<svg id="e02f7767-2a0f-4917-916e-f81c596f51c7" data-name="Layer 1" xmlns="http://www.w3.org/2000/svg" viewBox="0 0 825 300"><title>-</title><path d="M17.27,73.7a7.73,7.73,0,0,0,5.89-1.29c5.1-3,10.89-4,16.23-6.23,4.7-2,9.79-2.1,14.84-1.57a3.74,3.74,0,0,0,1.31-.26c2.46-.54,4.94-1.49,7.13.87a3.07,3.07,0,0,0,2.93.54,9.62,9.62,0,0,1,8,1.76c3.53,2.51,7.86,3.91,10.31,7.92a27.25,27.25,0,0,1,4.11,15A70.23,70.23,0,0,1,85.47,109c-1.62,5.68-2.38,11.75-4.74,17s-2.92,11.17-5.42,16.4c-.84,1.75-.72,4-3,4.8-.23.08-.36,1.11-.18,1.57.81,2.1,0,4-.69,5.87-2.07,5.79-3.89,11.61-3.92,17.84a3.41,3.41,0,0,1-.67,1.67c-2.35,4.22-3.3,8.86-3.94,13.61,2.89.18,4.74-1.45,6.49-3.05,3.69-3.38,7-7.29,11-10.21s6.72-7,11.14-9.26a4.63,4.63,0,0,0,1.43-1.34c3-3.93,7.12-6.66,10.87-9.81,3.06-2.57,6.14-5.2,9.19-7.82,6.3-5.42,12.42-11.05,19-16.16,4.12-3.19,7.4-7.45,11.44-10.74,4.75-3.87,8.57-8.72,13.65-12.26,2.05-1.43,4.22-3.18,5.22-5.84a5.61,5.61,0,0,1,1.91-2c6.11-4.84,10.75-11,15.66-17a19.31,19.31,0,0,0,4.08-9.84A32.51,32.51,0,0,1,186.07,65c2.87-7.38,4.73-15.08,7.3-22.56,2.4-7,6.1-13.37,8.85-20.19a10.3,10.3,0,0,1,6.21-5.74c1.08-.3,2.77-.75,3.33.35.92,1.8,3.17,3.05,2.66,5.49-.75,3.57.08,7.06.26,10.6.22,4.33,2.59,8.43,1.14,13a24.47,24.47,0,0,1-2.28,5.42c-2,3.31-3.56,7.24-6.37,9.66-3,2.58-3.45,6.94-7.53,8.78-1.86.84-2.47,4.12-4.3,5.93-4.55,4.49-7,10.24-9.23,16.1-2.7,7-3.33,14.32-4.48,21.62-.84,5.3.14,10.68-1.41,15.91-.34,1.16-1,3.61.82,3.87s1.43-2.14,1.89-3.44a41.74,41.74,0,0,1,1.91-5.44c.95-1.84,5.48-1.77,7.62-.25a59.31,59.31,0,0,1,7.14,6.06c1.41,1.37,2.7,1.71,4.9,1.33,4.34-.74,7.3-3.26,10.78-5.55,7.5-4.91,11.06-12.66,15.86-19.52a12,12,0,0,1,9.19-4.4c2.89.26,3.95,2.77,5,5a12.47,12.47,0,0,1,.65,3.26c.51,3.25,2.87,4.67,5.55,3,.75-.48,1.68-.22,2.14-.86,2-2.71,5.78-3,7.51-6.05.88-1.53,2.71-1.93,4-3,6-4.64,11.4-10.28,18.42-13.52,2.2-1,4.33-2.32,7-2.7a28.1,28.1,0,0,0,7.87-2.57,13.6,13.6,0,0,1,9.54-.25c1.18.37,1.91,1.64,2.33,3.2,1.2,4.39-1.23,7.07-4.16,9.21-3.91,2.85-4.51,7-5.42,11.16-.19.84.48,1.69,1.78,2,3,.82,6.28,1.31,8.22,4.39a8.18,8.18,0,0,1,1.32,2.27c1.42,5.17,5.42,7.5,10.18,8.87a5.1,5.1,0,0,0,3.75-.76c3.72-1.93,7.79-1.53,11.34-.34a13.07,13.07,0,0,1,5.32,3.5c2.17,2.62,5.16,3.94,7.62,6a4,4,0,0,0,3.05,1.17c3.56-.67,7.06,1.17,10.61.13.27-.08.68.15,1,.32,2.52,1.46,2.79,1.33,3.34-1.55a4.56,4.56,0,0,1,.58-2.1c2.42-2.69,1.55-6.22,2.56-9.24,1.22-3.64,1.44-7.58,3.38-11a1.34,1.34,0,0,0,.21-.8c-.92-5.54,2.75-10.09,3.28-15.32.75-7.33,4.23-14,4.88-21.42.17-1.93,1.65-3.79,2.16-5.9,1.39-5.73,3.31-11.31,5.12-16.91,1.34-4.14,2.47-8.47,3.89-12.59,1.5-4.35,2.86-8.75,4.24-13.13a106.43,106.43,0,0,0,2.86-12.09c.29-1.55.36-3.06,1.27-4.45,1.5-2.28,5.49-3,7.52-1.27,1.5,1.31,3.16,2.44,4.29,4.18.4.62.74,2,2.05,1.38a2.72,2.72,0,0,0,1.58-2.42c0-.91-.58-1.73.93-2.07a1.68,1.68,0,0,1,2.17.84c.7,1,2.77,1.47,2.84,2.29.22,2.65.06,5.43-1.69,7.71a6.31,6.31,0,0,0-1.16,3.88A81.55,81.55,0,0,0,422.86,41c.84,4.85,1.83,9.73,3,14.54.41,1.69,1.53,3.06,1.79,4.89.17,1.19,1.4,2.42,3.14.76a14.42,14.42,0,0,0,3-4c1.73-3.38,3.52-6.73,6.51-9.29,3.17-2.73,6.1-5.75,9.3-8.43,4.37-3.66,8.41-2.94,11.48,1.82a28.2,28.2,0,0,1,2.67,4.8,5.62,5.62,0,0,0,3.27,3c5.28,2.28,7.79,4.9,8.61,11.07.76,5.66-.45,11.62,2.16,17.1a6.35,6.35,0,0,1,.19,3.61c-1.39,4.64-.16,9.36-.72,14.06-.47,4-.89,8-1.09,12a14.88,14.88,0,0,0,2.62,8.64c.87,1.36.29,3.69.21,5.44-.12,2.82,1.38,5,1.76,7.56.57,3.84,1.55,7.62,2.45,11.4.46,1.94-.46,3.51-1.37,5s-2.18,2-3.77.83c-1.85-1.4-3.72-2.77-3.71-5.46a2.66,2.66,0,0,0-.33-1.56c-3.39-4.3-2.92-9.69-3.89-14.58-1.18-5.93-1.68-12-3-17.94a13.22,13.22,0,0,1,0-5.19,11.68,11.68,0,0,0-.13-5.21c-.66-2.49.21-5.17-.59-7.7-.06-.2.33-.64.26-.72-3.14-3.35.17-6.71,0-10,0-.18.15-.45.08-.53-2.35-2.57-.22-6-1.62-8.73a3.34,3.34,0,0,1-.46-2.13c1-3.47-1.53-5.27-3.15-7.68s-3-5.28-5.54-7.11-3.58-1.41-5.57.84A168.81,168.81,0,0,0,436,71.14a20.19,20.19,0,0,1-4.69,4.52,3,3,0,0,1-3.67-.35,24.16,24.16,0,0,1-6.2-6.93c-1.05-1.94-2-4-2.92-5.94s-1.06-4.44-1.6-6.68c-.58-2.39-.94-4.84-1.76-7.2a5,5,0,0,1,.05-2.77,1.76,1.76,0,0,0-1.36-2.48c-1.38-.37-1.52.85-1.54,1.68,0,1.07-.82,1.64-1.22,2.46-2.71,5.58-3.43,11.83-5.85,17.44-1.53,3.56-2.24,7.44-4.29,10.79a11.69,11.69,0,0,0-1,4c-.67,3.49-1.6,6.85-4,9.68-1.08,1.27-.84,3.17-1.09,4.78a29.88,29.88,0,0,1-1.79,7c-1.67,4-2,8.43-3.37,12.53-2.31,7.06-3,14.6-6.68,21.26-2.13,3.85-2,8.4-2.84,12.65-.25,1.3-.47,2.9-1.37,3.56-3.94,2.91-3.39,7.28-3.57,11.15a32.56,32.56,0,0,1-1.52,9.25c-1.51,4.17-1.93,8.56-3.48,12.7-1.22,3.24-1.74,6.71-4,9.55a3.16,3.16,0,0,0-.39,2.16c.58,4.56-1.74,8.3-3.29,12.27a14.25,14.25,0,0,0-.9,4c-.33,4.19-2.35,7.85-3.51,11.78-.68,2.32-4.17,4.32-6,3.71-2.12-.72-4.11-4.2-3.65-6.55.59-3,1.43-6,1.85-9,.69-4.9,2.17-9.72,1.59-14.75a1.58,1.58,0,0,1,0-.83c3.17-5.8,3.59-12.4,5.4-18.58,2-6.71,3.52-13.5,5-20.31.74-3.32,1.29-6.68,2.18-10,.39-1.46,0-2.92-2.1-3.18a5.37,5.37,0,0,0-2.34,0c-5.8,2.2-10.62-2.73-16.18-2.17a2.35,2.35,0,0,1-1.87-1.12A23.2,23.2,0,0,0,333,135c-2.57-1.1-5.17-.8-7.77-.85-5.13-.09-9.9-.74-14.73-3.23-3.45-1.78-4.42-4.64-6.27-7.21-1-1.41-2.06-2-3.71-1.09-4.3,2.39-7.77,1.77-11.18-1.89s-2.85-7.59-1.14-11.74a52.14,52.14,0,0,0,3.39-11c.26-1.51-.17-1.68-1.4-1.22-.6.23-1.38.28-1.76.7-2.82,3.17-6.91,4.52-10.15,7.11-1.28,1-1.6,2.41-2.55,3.5-1.91,2.2-4.6,3.4-6.57,5.59-1.15,1.27-2.39,2.54-3.52,3.85a10.69,10.69,0,0,1-3.32,2.46c-3.11,1.65-6.13,3.52-9.19,5.25-1.34.76-3.78.1-5.52-.48-3.25-1.08-6.66-2.11-8.4-5.59-.26-.51-.92-1.16-1.38-1.14-.78,0-.57,1-.86,1.55a4.13,4.13,0,0,0-.38,2.43c0,.45-.18,1.3-.5,1-2-1.66-2.12,1.23-3.17,1.21-2,0-2.3,1.42-3.06,2.64-3,4.81-7,8.4-12.54,10a2.19,2.19,0,0,0-1.3,1c-1,2.35-2.87,2.87-5.26,2.9-3.65,0-7.17.63-10.81-1.15-2.28-1.11-5.29-.68-7.88-1.57a1.54,1.54,0,0,0-1.63.88c-2.88,4.88-6.45,9.34-8.67,14.62a3.3,3.3,0,0,0-.28,2.37c.7,1.41.07,2.62-.29,3.78-1.26,4.07-3.83,5.34-7.92,4.12-2.16-.64-4-4.32-3.06-6.44a19.65,19.65,0,0,0,1.69-9,40.08,40.08,0,0,1,.57-7.72c.34-2.13-.8-3.71-.8-5.64a117.31,117.31,0,0,1,1.64-17.19c.33-2.21-.45-4.26-.14-6.56.52-3.85,3-7.19,2.53-11.21-.07-.54.94-1.24-.05-1.63a2.39,2.39,0,0,0-1.84.17,4.71,4.71,0,0,0-1.78,1.72,13.09,13.09,0,0,1-7,6.06.85.85,0,0,0-.61.8c-.46,4.12-4.22,5.07-6.82,7.15-.65.52-1.72,1-1.87,1.6-.79,3.42-3.95,3.84-6.3,5.27-.55.33-1.19.47-1.42,1.22-1.29,4.24-5.24,6.2-8,9.14-3,3.19-6.85,5.22-10.66,7.4-1.81,1-3.52,3.27-5.24,5-2.89,2.9-4.91,6.85-8.39,8.92-4.67,2.79-7.14,7.95-12.08,10.26-.65.3-.87.91-1.16,1.51-.79,1.58-1.64,3-3.66,3.45-1,.22-1.86,1.19-2.73,1.88-1.4,1.11-2.56,2.56-4.68,2.4-.71-.05-1.15.64-1.44,1.46-.77,2.21-2.56,3.42-4.48,4.73s-3,3.41-4.46,5.11c-3.15,3.57-6.35,7.08-10.62,9.44C67,195,65.41,198.59,63,201.41c-3,3.53-5.18,7.6-8.72,10.77a8.56,8.56,0,0,0-2.53,6.1c0,.52.56,1.25-.06,1.52-2.8,1.23-3.29,4.07-4.65,6.33-1.06,1.75-2.48,3.19-4.8,3a1.88,1.88,0,0,0-1.7.77c-1.45,1.82-3.18,1-4.07-.2-1.18-1.53-2.22-3.51-1.61-5.63a98.36,98.36,0,0,1,8.59-19.82c1.43-2.63,3.85-5.09,4.9-7.77,2.22-5.67,6.28-10.37,7.58-16.62.77-3.7,1.15-7.74,3.3-11.36,1.45-2.43.94-5.92,1.82-8.89.94-3.18,2.62-6.13,3.38-9.26,1-4,2.27-7.83,3.46-11.72.88-2.88,2.33-5.55,3.34-8.4a18.8,18.8,0,0,0,.84-4.53,50.91,50.91,0,0,1,3-11.33,70.6,70.6,0,0,0,3.19-14.28c.62-4.68,2.12-9.4,1.4-14.08-.56-3.67-2.74-6.95-5.16-9.87a1.09,1.09,0,0,0-1-.3c-2.1,1.07-3.16-.8-4.73-1.4-5.42-2-10.93-4.41-17-2.43a4.86,4.86,0,0,1-2.17.41c-5.79-1-10.4,2-15.43,4-2.56,1-4.9,2.77-7.84,3.16-1.43.19-2.61,1.92-4,2.82C19.73,84.18,17.2,86.78,14,87s-5.83,1.58-8.92,1.75c-2.45.13-4.33-.61-4.6-3.16a5.42,5.42,0,0,1,1.05-4.2C4.44,78.24,5.9,74.21,8.25,70.7A160.93,160.93,0,0,0,17.08,55.9C19,52.26,21.8,49,23.5,45.24c3.16-7,8.18-12.77,12.35-19.1,1.59-2.41,2.84-4.8,1.43-7.73-.27-.57-.3-1.13.26-1.48,2.5-1.57,3.93-4.32,6.66-5.74a8.88,8.88,0,0,0,3.73-4.27c1.76-3.78,5.07-5.74,8.86-7a1.12,1.12,0,0,1,1,.23c1,1.3,2.49,1.8,3.8,2.62,1.84,1.15,1.85,4.3.35,7.73-1.13,2.58-2,5.1-4.94,6.57-3.34,1.69-4.18,5.89-7.18,8.13-3.38,2.52-5.12,6.4-7.66,9.56-4.29,5.35-7.49,11.32-11.23,17-3,4.5-6,9.09-8.81,13.73C20.5,68.1,19.07,70.84,17.27,73.7ZM411,25.83c0-2,.06-3.39-1.91-3.66-2.12-.29-1.85,1.25-2,2.51a7.8,7.8,0,0,1-.5,1.29c-3.45,9.88-7,19.75-10.3,29.67-.8,2.38-1.2,5.13-2.36,7.13-3.65,6.27-3.93,13.51-6.6,20-1.24,3-1.1,6.3-2.22,9.37s-2.35,6.4-2.51,9.84c0,.53-.66,1.4.33,1.66.83.22.88-.52,1.2-1.13A53.41,53.41,0,0,0,388.06,91c1.24-4.78,3.89-9.07,4.7-14,.34-2,.49-4.15,1.51-5.9,3-5.18,3-11.43,6-16.63a10.82,10.82,0,0,0,1.18-2.74A90.61,90.61,0,0,1,409,32C410,30,411.22,27.8,411,25.83ZM196.83,62.4a56.37,56.37,0,0,0,10.7-15.2c1.45-2.91,2.84-5.75.91-9-.39-.66,0-1.94-1-2.12s-1.45,1-1.9,1.77-.77,1.67-1.23,2.46c-1.16,2-1,4.54-2.35,6.43a32.7,32.7,0,0,0-4.15,8.7C197.1,57.41,196,59.49,196.83,62.4ZM381,111.5c-1.24,1.48-2,2.82-1.8,4.53a.56.56,0,0,0,.89.3A3.92,3.92,0,0,0,381,111.5Z"/><path d="M639.3,119.44a5.56,5.56,0,0,0-1-4.4c-.92-1.16.48-2.42.77-3.57.8-3.14.26-6.31.82-9.43a7.5,7.5,0,0,1,1.61-4c2.14-2.38.23-5.15.57-7.73.16-1.17-2.24-1.16-3.36-.57-3.22,1.69-6.93,1.79-10.15,3.32a8.2,8.2,0,0,1-5.91.48c-1.32-.36-3.18-1.21-3.85-.48-1.28,1.41-2.83,2.63-3.81,4.39a51.9,51.9,0,0,0-2.16,5.22,15.93,15.93,0,0,1-1.35,2.74c-2.58,3.82-7.21,4.32-10.21.86-1.84-2.12-3.83-4.21-4.65-7.13s-2.74-2.9-5.28-1.12c-4.57,3.21-6.09,8.25-8,12.89s-4.18,9.42-6.09,14.2c-.14.34-.38.64-.5,1-1.06,3.2-5.54,5.74-8.77,5a3.57,3.57,0,0,1-2.48-2.44c-2.28-5.57-3-11.58-3.71-17.41a20.31,20.31,0,0,1,1.42-10c.54-1.24.91-2.86.38-3.41-2.5-2.58.07-3.29,1.42-4.26,2.23-1.59,6.8-.43,8.23,1.88.42.68.86,1.34.15,2-1.25,1.15-.1,2.28,0,3.37a2.29,2.29,0,0,0,1.79,2c1.3.12.62-1.24,1-1.88,1.81-3.3,3.46-6.59,3.44-10.55,0-1.53,1.32-2.56,3.12-2.55,4.46,0,8-2.41,11.64-4.48,1.81-1,3.53-2.26,5.27-3.34,2.59-1.6,5.58-.67,8.09,1,1,.69,2.17,1.26,3,.26,2.88-3.43,6.62-1.88,8.92-.38,4.41,2.88,8.29,2.28,12.63.58,4.12-1.62,8-3.76,12-5.58,2.54-1.16,6.24-3.45,9.19-.26,1.12,1.21,1.41,3.17,2.16,4.74,1.78,3.69,1,7.46-.51,10.77-2.9,6.2-3.28,12.9-4.39,19.42-.69,4-.13,8.31-.12,12.47a.6.6,0,0,0,.07.27c3,5.56,5.65,11.43,12.5,13.43,3.38,1,6-.71,8.49-2.47,2.94-2.09,5.65-4.51,8.43-6.82,1.3-1.08,2.85-.72,4.28-.78,3.51-.15,7.06-.42,10.2,1.78,1.81,1.27,3.92.79,5.88.5,4.41-.67,8.48-.87,12.79,1.46,3.38,1.83,7.58,2.54,11.5,2.88,3.69.32,6.82-2.15,9.75-4.18a77.26,77.26,0,0,0,7.52-5.57c2.79-2.48,6.86-1.27,10.3-2,3.16-.68,6.51-.53,9.44-2.33,3.95-2.41,8.17-3.81,12.94-3a7,7,0,0,0,3.55-.36c2.1-.78,4.13.08,6.19.77,4,1.36,8.37,1.09,12.42,2.06,5,1.19,9.46,0,14-1.59.68-.23,1,.13,1.51.13,2.31,0,4.63.18,6.61-1.43,1.11-.9,2.56-.86,3.89-1.16.64-.14,1.38-.53,1.68.23a1.72,1.72,0,0,1-.61,1.75,24.6,24.6,0,0,0-5.27,6.72,2.29,2.29,0,0,1-1.55,1.07c-4.06.34-7.75,2.32-11.68,2.82-3.41.43-7-.41-10.5-.7-4.72-.4-9.05-2.85-13.74-2.95a39.92,39.92,0,0,0-13.45,2.31c-2.44.82-5.35,1.26-7.26,2.39-3.72,2.2-7.71,2.28-11.54,3.38-2.31.67-4,2.69-6.48,2.9a.4.4,0,0,0-.24.11c-5,5.62-7.24,6.37-13.7,7.52-3.54.64-7.33-.07-11-.27-.45,0-.88-.63-1.31-1s-1-1.18-1.45-1.16c-4.44.19-8.13-3.26-13-2a23.69,23.69,0,0,1-12.39-.59c-2.8-.81-5.06.22-7.39,1.92-4.07,3-7.78,6.73-13,7.57-4.89.78-9.21.51-13.74-3a65.8,65.8,0,0,1-10.74-10.24C641,129.27,639,124.82,639.3,119.44Z"/><path d="M513.47,95.77c2.23-1.28,4.43-2.47,5.22-5.25s3.75-3.61,4.8-6.09c.2-.48,1-.8.83-1.38-1-3.08,1.42-3.42,3.23-4.43a5.66,5.66,0,0,0,2.79-3,4.52,4.52,0,0,1,4.13-2.82c4.66-.44,5.62-1.56,7.3-5.78,2.08-5.25,3.54-10.71,5.4-16,1.54-4.4,3.84-8.54,4.87-13.13a12.11,12.11,0,0,1,1.55-3.12c2-3.59,2.73-7.7,4.38-11.47,1.06-2.43,2.52-5,2.59-8,0-1.43,1.65-2.82,2.54-4.22.47-.75,1.4-1.21,1.12-2.4-.16-.69.56-1.16,1.21-1.35,2.29-.67,5.13-.19,6.26,1.09a5.37,5.37,0,0,1,.63,6.43c-3.24,5.89-5.61,12.31-9.19,18s-4.65,12.35-7.46,18.26c-2.53,5.31-3.5,11.28-7,16.14A2.66,2.66,0,0,0,548,69.1c.81,3.45-.89,6.4-2,9.32a102.69,102.69,0,0,0-5.3,17.87,87,87,0,0,1-5,17.77c-.48,1.12-1.13,2.45.14,3.59a.76.76,0,0,1,.16,1c-2.28,4.08-1.91,8.61-2.48,13a25.73,25.73,0,0,1-1.62,5.51c-1.14,3-1.29,6.37-2.05,9.54-.66,2.72-.46,5.57-2.59,8.06a8.44,8.44,0,0,0-1.81,5.83c.38,3.91-.76,7.68-1,11.52-.23,3.5-1.43,6.84-1.79,10.07-.44,4-1.87,7.94-1.45,12,.07.67-.37,1-.51,1.49-.5,1.75-1.21,3.41-.68,5.42.35,1.31.93,3.08-1,4.2a1.84,1.84,0,0,0-.15,2.63c.91,1.17.23,2.88-.22,4.27-1.33,4.15-2.95,8.22-2.64,12.71.13,1.87-.84,3.57-1.24,5.36a147.67,147.67,0,0,0-2.62,16.27.94.94,0,0,1-.51.6c-3.66,1.64-3,4.91-2.71,7.8A7.81,7.81,0,0,1,507,261.2c-1.56,1.9-.56,4.38-1.43,6.53-.63,1.54-.48,3.44-1.34,5-1.86,3.36-1.72,7.17-2.52,10.77s-.91,7.19-2.44,10.53c-.69,1.51.37,3.6-1.89,4.71-.92.45-2,1.36-2.59.69-.82-1-2.55-1.78-2-3.43,1.6-4.7,1.62-9.82,3.23-14.37,1.8-5.07,2.38-10.41,4.25-15.47,1-2.72,1.44-6.17,2-9.16s2.58-6.5,3-9.48c.94-6.28,3.24-12.3,3.23-18.79,0-5,2.26-9.82,3.12-14.79a94.7,94.7,0,0,0,1.35-9.61c.28-4,1.24-8.06,1.72-12,.42-3.48,2-6.69,1.76-10.4s1.13-7.59.92-11.46c-.06-1.09,1-1.51,1.39-2.23,1.61-2.69.87-5.65,1.45-8.43,1.1-5.26,1.82-10.59,2.86-15.87a12.18,12.18,0,0,0,.5-3.81,8.35,8.35,0,0,1,1.38-6,4.6,4.6,0,0,0,.9-2.84,13.13,13.13,0,0,1,2.48-7.44c.18-.28.37-.77.25-1-1.78-3.51.33-6.48,1-9.74.8-3.82,2.18-7.55,2.42-11.47a6.67,6.67,0,0,1,.77-2.93c.78-1.37.3-2.52-.34-3.7-.84.51-2,.82-2.48,1.55-2.67,3.74-6.32,6.51-9.38,9.83-2.15,2.34-4.79,2.7-7.44,2.75a42.47,42.47,0,0,1-8.4-1.1c-3.41-.63-4.53-2.57-4.87-6.06-.41-4.27,1.75-7.47,3.57-10.9.73-1.37,1.18-2.55,3.14-3,2.93-.63,6.61,1.92,6.42,5A3.56,3.56,0,0,0,513.47,95.77Z"/><path d="M97.74,39.85c5,2.17,10.19.19,15.28,1.05,1.88.32,4-.89,6-.88,5.08,0,10.18.7,15.24.47,4.4-.2,8.65.88,13,1,2.94.1,6.29-.42,9.36,1,1.23.56,3-.28,4.55.56,1.05.58,2.14,1.33,1.92,2.43a3.26,3.26,0,0,1-2.56,2.43c-4.67,1.42-9.1-.21-13.61-.58-2.1-.17-4,.66-6.08.5-5.79-.48-11.61-.32-17.39-.38-5.35-.05-10.57-1.1-15.86-1.18-2.74,0-5.14.24-7.57-1.79-.84-.7-3.59.21-5.49,0-.83-.1-1.83.12-1.92-1.07A1.8,1.8,0,0,1,94,41.53C95.27,41.1,96.19,39.81,97.74,39.85Z"/></svg>